<svg xmlns="http://www.w3.org/2000/svg" width="53" height="61" viewBox="0 0 53 61">
  <metadata><?xpacket begin="﻿" id="W5M0MpCehiHzreSzNTczkc9d"?>
<x:xmpmeta xmlns:x="adobe:ns:meta/" x:xmptk="Adobe XMP Core 5.6-c138 79.159824, 2016/09/14-01:09:01        ">
   <rdf:RDF xmlns:rdf="http://www.w3.org/1999/02/22-rdf-syntax-ns#">
      <rdf:Description rdf:about=""/>
   </rdf:RDF>
</x:xmpmeta>
                                                                                                    
                                                                                                    
                                                                                                    
                                                                                                    
                                                                                                    
                                                                                                    
                                                                                                    
                                                                                                    
                                                                                                    
                                                                                                    
                                                                                                    
                                                                                                    
                                                                                                    
                                                                                                    
                                                                                                    
                                                                                                    
                                                                                                    
                                                                                                    
                                                                                                    
                                                                                                    
                           
<?xpacket end="w"?></metadata>
<defs>
    <style>
      .cls-1 {
        fill: #fff;
        fill-rule: evenodd;
      }
    </style>
  </defs>
  <path class="cls-1" d="M897.989,1930.71c0-1.42-2.539-2.72-6.718-3.71l-4.284-23.39a4.563,4.563,0,0,0-4.516-4.62H860.53a4.564,4.564,0,0,0-4.516,4.62L851.73,1927c-4.187.98-6.732,2.29-6.732,3.71,0,1.87,4.368,3.52,11.074,4.53l-5.375,23.19a1.294,1.294,0,0,0,.931,1.55,1.416,1.416,0,0,0,.288.03,1.262,1.262,0,0,0,1.218-.99l1.5-6.46,16.9-5.34,16.956,5.32,1.5,6.48a1.263,1.263,0,0,0,1.217.99,1.428,1.428,0,0,0,.29-0.03,1.3,1.3,0,0,0,.931-1.55l-5.382-23.21c6.627-1.01,10.938-2.65,10.938-4.51m-42.684,18.95,1.629-7.03,10.342,3.25Zm20.485-3.79,10.394-3.28,1.638,7.06Zm9.814-5.78-14.07,4.44-14.021-4.4,1.056-4.55a117.6,117.6,0,0,0,25.986-.02Z" transform="translate(-845 -1899)"/>
</svg>
