<svg xmlns="http://www.w3.org/2000/svg" width="56" height="55.03" viewBox="0 0 56 55.03">
  <metadata><?xpacket begin="﻿" id="W5M0MpCehiHzreSzNTczkc9d"?>
<x:xmpmeta xmlns:x="adobe:ns:meta/" x:xmptk="Adobe XMP Core 5.6-c138 79.159824, 2016/09/14-01:09:01        ">
   <rdf:RDF xmlns:rdf="http://www.w3.org/1999/02/22-rdf-syntax-ns#">
      <rdf:Description rdf:about=""/>
   </rdf:RDF>
</x:xmpmeta>
                                                                                                    
                                                                                                    
                                                                                                    
                                                                                                    
                                                                                                    
                                                                                                    
                                                                                                    
                                                                                                    
                                                                                                    
                                                                                                    
                                                                                                    
                                                                                                    
                                                                                                    
                                                                                                    
                                                                                                    
                                                                                                    
                                                                                                    
                                                                                                    
                                                                                                    
                                                                                                    
                           
<?xpacket end="w"?></metadata>
<defs>
    <style>
      .cls-1 {
        fill: #fff;
        fill-rule: evenodd;
      }
    </style>
  </defs>
  <path class="cls-1" d="M1550.84,1902.98a5.927,5.927,0,1,1-5.79,5.92,5.861,5.861,0,0,1,5.79-5.92m3.64,47.62v4.28a3.1,3.1,0,0,0,3.06,3.13h0.01a3.1,3.1,0,0,0,3.06-3.14l-0.01-4.27h-6.12Zm-13.71-18.61a1.668,1.668,0,0,0,.31.02,2.249,2.249,0,0,0,2.11-1.51c3.71-.21,6.02-0.99,7.52-2.6l1.09,5.24a4.147,4.147,0,0,0,2.18,2.84h1.46a3.822,3.822,0,0,1,1.78-2.09,59.415,59.415,0,0,0-2.72-9.58c-0.62-1.16.25-1.56,0.71-.35a90.275,90.275,0,0,1,2.88,10.31,3.03,3.03,0,0,0-2.06,2.4h-4.33v13.08h17.31v-13.08h-4.32a3.047,3.047,0,0,0-2.09-2.41,2.184,2.184,0,0,0-.03-0.57c-0.29-1.5-3.8-15.61-3.8-15.61a4.129,4.129,0,0,0-4.12-3.59h-0.01a9.477,9.477,0,0,0-1.32.12,4.609,4.609,0,0,0-1.19.44,5.446,5.446,0,0,0-3.07,4.09,2.139,2.139,0,0,0-.06.27c-0.39,2.81-.78,4.59-1.62,5.37-0.87.81-2.82,1.17-6.32,1.17a2.218,2.218,0,0,0-1.91,1.1m18.43,9.62a1.452,1.452,0,0,1,1.13-.98,2.234,2.234,0,0,0,1.65.74,1.625,1.625,0,0,0,.43-0.05,2.23,2.23,0,0,0,1.22-.69,1.482,1.482,0,0,1,1.13.98h-5.56Zm-20.63-27.77a5.787,5.787,0,1,1-5.79-5.92,5.863,5.863,0,0,1,5.79,5.92m-9.43,41.7h-6.12l-0.01,4.27a3.1,3.1,0,0,0,3.07,3.14h0a3.1,3.1,0,0,0,3.06-3.13v-4.28Zm15.33-22.77a2.218,2.218,0,0,0-1.91-1.1c-3.5,0-5.45-1.14-6.31-1.95-0.85-.78-1.24-2.56-1.63-5.37a2.139,2.139,0,0,0-.06-0.27,5.434,5.434,0,0,0-3.06-4.09,4.77,4.77,0,0,0-1.2-.44,9.477,9.477,0,0,0-1.32-.12h-0.01a4.129,4.129,0,0,0-4.12,3.59s-3.51,14.11-3.8,15.61a2.179,2.179,0,0,0-.02.57,3.042,3.042,0,0,0-2.1,2.41h-4.32v13.08h17.31v-13.08h-4.33a3.03,3.03,0,0,0-2.06-2.4,92.427,92.427,0,0,1,2.88-10.31c0.47-1.21,1.33-.81.71,0.35a59.415,59.415,0,0,0-2.72,9.58,3.782,3.782,0,0,1,1.78,2.09h1.46a4.12,4.12,0,0,0,2.18-2.84l1.09-5.24c1.5,1.61,3.81,2.39,7.52,2.6a2.249,2.249,0,0,0,2.11,1.51,1.668,1.668,0,0,0,.31-0.02m-22.37,4.68a1.482,1.482,0,0,1,1.13-.98,2.23,2.23,0,0,0,1.22.69,1.652,1.652,0,0,0,.44.05,2.229,2.229,0,0,0,1.64-.74,1.481,1.481,0,0,1,1.14.98h-5.57Zm40.82,7.59c0.14,1.49.61,2.24,1.4,2.24a1.64,1.64,0,0,0,.81-0.22,2.252,2.252,0,0,0,.71-1.02,1.781,1.781,0,0,1,.38-0.66,0.516,0.516,0,0,1,.33-0.12,0.74,0.74,0,0,1,.57.21,0.812,0.812,0,0,1,.21.6,2.222,2.222,0,0,1-.88,1.69,3.068,3.068,0,0,1-2.12.78,2.793,2.793,0,0,1-2.04-.87,4.161,4.161,0,0,1-1.04-2.63h-0.77c-0.07,0-.11-0.05-0.11-0.16a0.859,0.859,0,0,1,.12-0.39,0.35,0.35,0,0,1,.19-0.24h0.52v-0.22c0-.19.01-0.45,0.03-0.8h-0.75c-0.07,0-.11-0.05-0.11-0.15a0.931,0.931,0,0,1,.12-0.4,0.35,0.35,0,0,1,.19-0.24h0.61q0.39-3.24,2.99-3.24a3.207,3.207,0,0,1,1.97.61,1.8,1.8,0,0,1,.83,1.5,0.727,0.727,0,0,1-.2.51,0.624,0.624,0,0,1-.47.21,0.549,0.549,0,0,1-.45-0.16,1.828,1.828,0,0,1-.29-0.5,1.794,1.794,0,0,0-.42-0.67,1.132,1.132,0,0,0-.82-0.24,1.251,1.251,0,0,0-1.04.48,3.052,3.052,0,0,0-.46,1.5h1.96a0.13,0.13,0,0,1,.12.16,1.008,1.008,0,0,1-.11.41,0.352,0.352,0,0,1-.2.22h-1.82l-0.01.61c0,0.19,0,.33.01,0.41h2.01a0.121,0.121,0,0,1,.12.15,0.97,0.97,0,0,1-.11.41,0.382,0.382,0,0,1-.2.23h-1.78Zm-37.27,2.53h-2.03a0.35,0.35,0,0,0,0,.7h2.03a0.35,0.35,0,0,0,0-.7m-3.82-6.94-0.32-.18a0.332,0.332,0,0,0-.16-0.05,0.362,0.362,0,0,0-.3.17l-0.17.3a0.351,0.351,0,0,0,.13.47l0.31,0.19a0.317,0.317,0,0,0,.16.04,0.349,0.349,0,0,0,.3-0.18,1.557,1.557,0,0,1,.16-0.28,0.364,0.364,0,0,0,.04-0.27,0.359,0.359,0,0,0-.15-0.21m2.66-1.03c0.04,0,.09-0.01.14-0.01s0.11,0.01.15,0.01a0.075,0.075,0,0,0,.05.01,0.323,0.323,0,0,0,.31-0.33v-0.38a0.337,0.337,0,0,0-.34-0.34h-0.33a0.337,0.337,0,0,0-.34.34v0.38a0.323,0.323,0,0,0,.31.33,0.09,0.09,0,0,0,.05-0.01m-1.78.58a0.374,0.374,0,0,0,.18-0.05c0.09-.06.19-0.12,0.28-0.17a0.359,0.359,0,0,0,.17-0.21,0.366,0.366,0,0,0-.03-0.25l-0.18-.32a0.362,0.362,0,0,0-.3-0.18,0.369,0.369,0,0,0-.17.05l-0.29.17a0.322,0.322,0,0,0-.15.21,0.294,0.294,0,0,0,.03.26l0.18,0.32a0.309,0.309,0,0,0,.28.17m5.51,0.4a0.337,0.337,0,0,0-.3-0.18,0.3,0.3,0,0,0-.16.05l-0.32.18a0.322,0.322,0,0,0-.15.21,0.364,0.364,0,0,0,.04.27,2.606,2.606,0,0,1,.17.28,0.322,0.322,0,0,0,.29.18,0.317,0.317,0,0,0,.16-0.04l0.31-.19a0.351,0.351,0,0,0,.13-0.47Zm-2.12-.62c0.09,0.05.19,0.11,0.28,0.16a0.3,0.3,0,0,0,.18.06,0.32,0.32,0,0,0,.28-0.17l0.18-.31a0.363,0.363,0,0,0-.12-0.48l-0.29-.17a0.337,0.337,0,0,0-.17-0.05,0.322,0.322,0,0,0-.29.18l-0.19.32a0.387,0.387,0,0,0-.03.26,0.371,0.371,0,0,0,.17.2m-5.7,2.76v0.34a0.352,0.352,0,0,0,.34.35h0.37a0.319,0.319,0,0,0,.24-0.11,0.385,0.385,0,0,0,.08-0.26,0.68,0.68,0,0,1-.02-0.15,0.605,0.605,0,0,1,.02-0.15,0.385,0.385,0,0,0-.08-0.26,0.319,0.319,0,0,0-.24-0.11h-0.37a0.346,0.346,0,0,0-.34.35m8.47,0.34v-0.34a0.34,0.34,0,0,0-.34-0.35h-0.37a0.319,0.319,0,0,0-.24.11,0.3,0.3,0,0,0-.07.26c0,0.04.01,0.09,0.01,0.15s-0.01.11-.01,0.15a0.309,0.309,0,0,0,.07.26,0.319,0.319,0,0,0,.24.11h0.37a0.346,0.346,0,0,0,.34-0.35m-0.61,1.37-0.32-.19a0.419,0.419,0,0,0-.16-0.04,0.324,0.324,0,0,0-.29.2c-0.04.1-.09,0.21-0.14,0.31a0.383,0.383,0,0,0,.15.47l0.26,0.15a0.3,0.3,0,0,0,.16.05,0.349,0.349,0,0,0,.3-0.18l0.16-.29a0.364,0.364,0,0,0,.04-0.27,0.336,0.336,0,0,0-.16-0.21m-6.77-.23h0a0.277,0.277,0,0,0-.16.05l-0.32.18a0.336,0.336,0,0,0-.16.21,0.416,0.416,0,0,0,.03.27l0.17,0.29a0.337,0.337,0,0,0,.3.18,0.332,0.332,0,0,0,.16-0.05l0.26-.15a0.375,0.375,0,0,0,.14-0.47c-0.05-.1-0.09-0.21-0.13-0.31a0.336,0.336,0,0,0-.29-0.2m4.21,4.75a0.346,0.346,0,0,0-.34-0.35h-1.45a0.346,0.346,0,0,0-.34.35,0.337,0.337,0,0,0,.34.34h1.45a0.337,0.337,0,0,0,.34-0.34m-3.24-3.95a5.5,5.5,0,0,1,.64,1.83,0.357,0.357,0,0,0,.35.33h2.37a0.341,0.341,0,0,0,.34-0.33,5.55,5.55,0,0,1,.66-1.86,5.078,5.078,0,0,0,.69-2.14,2.876,2.876,0,1,0-5.75,0,5.123,5.123,0,0,0,.7,2.17m2.17-4.08a1.9,1.9,0,0,1,1.87,1.91,4.335,4.335,0,0,1-.58,1.67v0.01a8.365,8.365,0,0,0-.65,1.57,0.063,0.063,0,0,1-.05.05h-1.17a0.054,0.054,0,0,1-.05-0.05,9.081,9.081,0,0,0-.64-1.54,4.588,4.588,0,0,1-.59-1.71,1.893,1.893,0,0,1,1.86-1.91" transform="translate(-1513 -1902.97)"/>
</svg>
