<svg xmlns="http://www.w3.org/2000/svg" xmlns:xlink="http://www.w3.org/1999/xlink" width="57" height="57.03" viewBox="0 0 57 57.03">
  <metadata><?xpacket begin="﻿" id="W5M0MpCehiHzreSzNTczkc9d"?>
<x:xmpmeta xmlns:x="adobe:ns:meta/" x:xmptk="Adobe XMP Core 5.6-c138 79.159824, 2016/09/14-01:09:01        ">
   <rdf:RDF xmlns:rdf="http://www.w3.org/1999/02/22-rdf-syntax-ns#">
      <rdf:Description rdf:about=""/>
   </rdf:RDF>
</x:xmpmeta>
                                                                                                    
                                                                                                    
                                                                                                    
                                                                                                    
                                                                                                    
                                                                                                    
                                                                                                    
                                                                                                    
                                                                                                    
                                                                                                    
                                                                                                    
                                                                                                    
                                                                                                    
                                                                                                    
                                                                                                    
                                                                                                    
                                                                                                    
                                                                                                    
                                                                                                    
                                                                                                    
                           
<?xpacket end="w"?></metadata>
<defs>
    <style>
      .cls-1 {
        fill: #fff;
        fill-rule: evenodd;
        filter: url(#filter);
      }
    </style>
    <filter id="filter" x="515" y="1900.97" width="57" height="57.03" filterUnits="userSpaceOnUse">
      <feFlood result="flood" flood-color="#fff"/>
      <feComposite result="composite" operator="in" in2="SourceGraphic"/>
      <feBlend result="blend" in2="SourceGraphic"/>
    </filter>
  </defs>
  <path class="cls-1" d="M557.865,1910H530.252a5.264,5.264,0,0,0-5.258,5.25v27.62a5.266,5.266,0,0,0,5.258,5.26h27.613a5.265,5.265,0,0,0,5.258-5.26v-27.62a5.263,5.263,0,0,0-5.258-5.25m8.2,8.24h5.085a0.85,0.85,0,0,0,0-1.7h-5.085a0.85,0.85,0,1,0,0,1.7m5.085,2.93h-5.085a0.85,0.85,0,0,0,0,1.7h5.085a0.85,0.85,0,1,0,0-1.7m0,4.72h-5.085a0.85,0.85,0,0,0-.85.85,0.859,0.859,0,0,0,.85.86h5.085a0.859,0.859,0,0,0,.85-0.86,0.85,0.85,0,0,0-.85-0.85m0,4.63h-5.085a0.85,0.85,0,1,0,0,1.7h5.085a0.85,0.85,0,1,0,0-1.7m0,4.28h-5.085a0.85,0.85,0,0,0,0,1.7h5.085a0.85,0.85,0,0,0,0-1.7m0,4.63h-5.085a0.85,0.85,0,1,0,0,1.7h5.085a0.85,0.85,0,1,0,0-1.7m-50.221-22.89h-5.085a0.85,0.85,0,0,0,0,1.7h5.085a0.85,0.85,0,0,0,0-1.7m0,4.63h-5.085a0.85,0.85,0,0,0,0,1.7h5.085a0.85,0.85,0,1,0,0-1.7m0,4.72h-5.085a0.849,0.849,0,0,0-.85.85,0.86,0.86,0,0,0,.85.86h5.085a0.855,0.855,0,0,0,0-1.71m0,4.63h-5.085a0.85,0.85,0,1,0,0,1.7h5.085a0.85,0.85,0,1,0,0-1.7m0,4.28h-5.085a0.85,0.85,0,0,0,0,1.7h5.085a0.85,0.85,0,0,0,0-1.7m0,4.63h-5.085a0.85,0.85,0,1,0,0,1.7h5.085a0.85,0.85,0,1,0,0-1.7M555.5,1951.2a0.857,0.857,0,0,0-.851.85v5.09a0.851,0.851,0,0,0,1.7,0v-5.09a0.85,0.85,0,0,0-.851-0.85m-4.633,0a0.856,0.856,0,0,0-.847.85v5.09a0.849,0.849,0,1,0,1.7,0v-5.09a0.85,0.85,0,0,0-.85-0.85m-4.717,0a0.855,0.855,0,0,0-.85.85v5.09a0.849,0.849,0,1,0,1.7,0v-5.09a0.85,0.85,0,0,0-.848-0.85m-4.633,0a0.857,0.857,0,0,0-.851.85v5.09a0.85,0.85,0,1,0,1.7,0v-5.09a0.848,0.848,0,0,0-.848-0.85m-4.273,0a0.857,0.857,0,0,0-.852.85v5.09a0.85,0.85,0,1,0,1.7,0v-5.09a0.849,0.849,0,0,0-.847-0.85m-4.631,0a0.854,0.854,0,0,0-.85.85v5.09a0.849,0.849,0,1,0,1.7,0v-5.09a0.849,0.849,0,0,0-.848-0.85m22.887-43.43a0.85,0.85,0,0,0,.851-0.85v-5.09a0.851,0.851,0,0,0-1.7,0v5.09a0.851,0.851,0,0,0,.851.85m-4.633,0a0.85,0.85,0,0,0,.85-0.85v-5.09a0.849,0.849,0,1,0-1.7,0v5.09a0.849,0.849,0,0,0,.847.85m-4.717,0a0.849,0.849,0,0,0,.848-0.85v-5.09a0.849,0.849,0,1,0-1.7,0v5.09a0.849,0.849,0,0,0,.85.85m-4.633,0a0.848,0.848,0,0,0,.848-0.85v-5.09a0.85,0.85,0,1,0-1.7,0v5.09a0.851,0.851,0,0,0,.851.85m-4.273,0a0.848,0.848,0,0,0,.847-0.85v-5.09a0.85,0.85,0,1,0-1.7,0v5.09a0.851,0.851,0,0,0,.852.85m-4.631,0a0.849,0.849,0,0,0,.848-0.85v-5.09a0.849,0.849,0,1,0-1.7,0v5.09a0.848,0.848,0,0,0,.85.85" transform="translate(-515 -1900.97)"/>
</svg>
