<svg xmlns="http://www.w3.org/2000/svg" width="73" height="70" viewBox="0 0 73 70">
  <metadata><?xpacket begin="﻿" id="W5M0MpCehiHzreSzNTczkc9d"?>
<x:xmpmeta xmlns:x="adobe:ns:meta/" x:xmptk="Adobe XMP Core 5.6-c138 79.159824, 2016/09/14-01:09:01        ">
   <rdf:RDF xmlns:rdf="http://www.w3.org/1999/02/22-rdf-syntax-ns#">
      <rdf:Description rdf:about=""/>
   </rdf:RDF>
</x:xmpmeta>
                                                                                                    
                                                                                                    
                                                                                                    
                                                                                                    
                                                                                                    
                                                                                                    
                                                                                                    
                                                                                                    
                                                                                                    
                                                                                                    
                                                                                                    
                                                                                                    
                                                                                                    
                                                                                                    
                                                                                                    
                                                                                                    
                                                                                                    
                                                                                                    
                                                                                                    
                                                                                                    
                           
<?xpacket end="w"?></metadata>
<defs>
    <style>
      .cls-1 {
        fill: #3d8a91;
        fill-rule: evenodd;
      }
    </style>
  </defs>
  <path class="cls-1" d="M691.839,920.288a3.906,3.906,0,0,0-.972.643c0.4,0.17,1.2-.656.972-0.643m0.1-.129-0.059.035,0.058-.021c0-.006,0-0.009,0-0.014m27.518-28.168A7.354,7.354,0,1,1,712,899.345a7.41,7.41,0,0,1,7.463-7.354m-44.807,31.527h2V922.57h-2a1.472,1.472,0,0,1-1.083-.29,0.42,0.42,0,0,1-.061-0.329l0.025-5.717h-0.961v5.517a1.333,1.333,0,0,0,.218,1.081,2.2,2.2,0,0,0,1.862.686m63.221,13.436-0.271-2.167c-1.073-8.469-1.115-8.793-.7-23.716a0.962,0.962,0,0,0-1.924-.051c-0.418,15.063-.373,15.4.715,24l0.272,2.171c0.28,2.08.033,3.523-.685,4.077-0.835.635-2.3,0.072-2.4,0.03-7.069-2.143-15.878,2.284-16.252,2.468a0.94,0.94,0,0,0-.412,1.277,0.961,0.961,0,0,0,.855.508,0.946,0.946,0,0,0,.441-0.107,31.608,31.608,0,0,1,8.452-2.653v14.744h-3.994a1.45,1.45,0,1,0,0,2.9h11.344a1.45,1.45,0,1,0,0-2.9h-3.679V942.627a11.66,11.66,0,0,1,2.6.448c0.1,0.041,2.488,1,4.216-.3,1.325-1,1.808-2.965,1.426-5.818m-4.572-4.3c-0.165-6.23-2.237-12.2-2.4-18.4-0.241-9.034-14.291-9.238-14.4-.426a76.391,76.391,0,0,1-16.217,1.127c-4.964-.23-4.979,7.344-0.051,7.571a83.1,83.1,0,0,0,17.1-1.187,93.16,93.16,0,0,1,1.488,9.965c-11.7,4.028-18.188,13.785-19.844,26.183-0.011.085-.014,0.177-0.021,0.265V930.3h7.379v-6.488H679.859a2.088,2.088,0,0,0,.027-0.3c0-.072.006-0.149,0.012-0.237a0.7,0.7,0,0,1,.676-0.84,2.691,2.691,0,0,1,.485-0.032v0.457h7.105a3.372,3.372,0,0,0,.6.067,0.833,0.833,0,0,0,.707-0.269,0.621,0.621,0,0,0,.078-0.39,0.6,0.6,0,0,1,.065-0.358,0.713,0.713,0,0,1,.442-0.217,1.912,1.912,0,0,0-.24.9h8.043c0-1.526-1.8-2.761-4.021-2.761a5.43,5.43,0,0,0-1.9.342c0.133,1.306-1.115,1.179-1.6,1.084-0.056.068-.105,0.142-0.155,0.215a0.417,0.417,0,0,0-.063-0.018,0.95,0.95,0,0,0-.688.312,0.749,0.749,0,0,0-.121.505,0.517,0.517,0,0,1-.03.251,0.583,0.583,0,0,1-.443.158v-1.091H681.06v0.579a2.925,2.925,0,0,0-.529.041,0.918,0.918,0,0,0-.868,1.051c0,0.09-.007.172-0.01,0.243a1.633,1.633,0,0,1-.03.308H665.007v6.49h4.017v31.475h29.92V958.62c0.487,4.851,8.89,4.407,9.63-1.143,1.28-9.593,6.958-16,16.507-18.118,3.969,0.6,8.353-1.625,8.219-6.7m-57.439-30.213,1.209,16.989-3.2.22-1.209-16.987Z" transform="translate(-665 -892)"/>
</svg>
