<svg xmlns="http://www.w3.org/2000/svg" width="79.031" height="73.031" viewBox="0 0 79.031 73.031">
  <metadata><?xpacket begin="﻿" id="W5M0MpCehiHzreSzNTczkc9d"?>
<x:xmpmeta xmlns:x="adobe:ns:meta/" x:xmptk="Adobe XMP Core 5.6-c138 79.159824, 2016/09/14-01:09:01        ">
   <rdf:RDF xmlns:rdf="http://www.w3.org/1999/02/22-rdf-syntax-ns#">
      <rdf:Description rdf:about=""/>
   </rdf:RDF>
</x:xmpmeta>
                                                                                                    
                                                                                                    
                                                                                                    
                                                                                                    
                                                                                                    
                                                                                                    
                                                                                                    
                                                                                                    
                                                                                                    
                                                                                                    
                                                                                                    
                                                                                                    
                                                                                                    
                                                                                                    
                                                                                                    
                                                                                                    
                                                                                                    
                                                                                                    
                                                                                                    
                                                                                                    
                           
<?xpacket end="w"?></metadata>
<defs>
    <style>
      .cls-1 {
        fill: #3d8a91;
        fill-rule: evenodd;
      }
    </style>
  </defs>
  <path class="cls-1" d="M446.69,900.2a10.129,10.129,0,1,1,10.128,10.212A10.17,10.17,0,0,1,446.69,900.2m15,17.169a11.122,11.122,0,0,1,2.083-5.983,12.817,12.817,0,0,0-2.653-.276h-8.593a12.947,12.947,0,0,0-2.645.273,11.14,11.14,0,0,1,2.09,6.442,10.972,10.972,0,0,1,9.718-.456m1.715,0.917a11.678,11.678,0,0,1,5.382,8.661,9.21,9.21,0,0,0,3.942.891,9.409,9.409,0,1,0-9.324-9.552m-6.115,19.266a9.41,9.41,0,1,0-9.332-9.408,9.372,9.372,0,0,0,9.332,9.408m3.96,0.64h-7.917a12.014,12.014,0,0,0-11.95,12.05V960l0.024,0.152,0.668,0.209a54.007,54.007,0,0,0,16.247,2.642c8.779,0,13.871-2.524,14.184-2.688l0.623-.317h0.066v-9.763a12.009,12.009,0,0,0-11.945-12.05m15.44-9.713h-7.858a11.66,11.66,0,0,1-3.548,8.079,14.3,14.3,0,0,1,10.139,13.7v3.009c7.758-.289,12.23-2.5,12.524-2.652l0.623-.32h0.066v-9.768a12.011,12.011,0,0,0-11.946-12.046m2.1-19.662a11.683,11.683,0,0,1,5.38,8.663,9.224,9.224,0,0,0,3.942.89,9.409,9.409,0,1,0-9.322-9.553m13.282,10.194h-7.858a11.637,11.637,0,0,1-3.548,8.078,14.3,14.3,0,0,1,10.141,13.7v3.009c7.756-.287,12.228-2.5,12.523-2.652l0.623-.32h0.067v-9.768a12.012,12.012,0,0,0-11.948-12.046m-51.157,8.827a9.208,9.208,0,0,0,4.963-1.454,11.666,11.666,0,0,1,4.342-7.427c0.009-.177.025-0.351,0.025-0.529a9.331,9.331,0,1,0-9.33,9.41m8.381,8.72a11.652,11.652,0,0,1-3.548-8.034c-0.291-.022-0.578-0.045-0.876-0.045h-7.916A12.014,12.014,0,0,0,425,940.523v9.766l0.026,0.151,0.668,0.208a55.294,55.294,0,0,0,13.455,2.551v-2.948a14.3,14.3,0,0,1,10.142-13.7" transform="translate(-425 -889.969)"/>
</svg>
