<svg xmlns="http://www.w3.org/2000/svg" width="81.001" height="76.969" viewBox="0 0 81.001 76.969">
  <metadata><?xpacket begin="﻿" id="W5M0MpCehiHzreSzNTczkc9d"?>
<x:xmpmeta xmlns:x="adobe:ns:meta/" x:xmptk="Adobe XMP Core 5.6-c138 79.159824, 2016/09/14-01:09:01        ">
   <rdf:RDF xmlns:rdf="http://www.w3.org/1999/02/22-rdf-syntax-ns#">
      <rdf:Description rdf:about=""/>
   </rdf:RDF>
</x:xmpmeta>
                                                                                                    
                                                                                                    
                                                                                                    
                                                                                                    
                                                                                                    
                                                                                                    
                                                                                                    
                                                                                                    
                                                                                                    
                                                                                                    
                                                                                                    
                                                                                                    
                                                                                                    
                                                                                                    
                                                                                                    
                                                                                                    
                                                                                                    
                                                                                                    
                                                                                                    
                                                                                                    
                           
<?xpacket end="w"?></metadata>
<defs>
    <style>
      .cls-1 {
        fill: #3d8a91;
        fill-rule: evenodd;
      }
    </style>
  </defs>
  <path class="cls-1" d="M996.41,947.323l4.52-23.369a2.435,2.435,0,0,0-1.89-2.866,2.408,2.408,0,0,0-2.823,1.925l-4.142,21.4h-6.112a4.839,4.839,0,0,0,2.334-1.3,4.961,4.961,0,0,0,1.44-3.5l0.047-16.742a4.9,4.9,0,0,0-4.9-4.948l-4.473.031a4.9,4.9,0,0,0-4.828,5.014l0.058,3.781,4.269-4.82-4.392,7.992h-9.986a2.947,2.947,0,0,0,0,5.894h11.691a2.894,2.894,0,0,0,2.535-1.51l4.516-8.218a60.689,60.689,0,0,1-2.708,9.1,3.84,3.84,0,0,1-3.043,2.452l-10.724-.032a3.463,3.463,0,0,0-2.889,1.544,3.589,3.589,0,0,0-.361,3.294l7.91,20.293a3.466,3.466,0,0,0,4.522,1.986,3.553,3.553,0,0,0,1.958-4.589l-1.006-2.585,3.139-8.264H990.2l5.557,14.632a1.6,1.6,0,0,0,2.073.931,1.637,1.637,0,0,0,.92-2.1l-5.114-13.46h0.414a2.413,2.413,0,0,0,2.357-1.969m-20.213,5.77-3.271-8.391,3.148,0.01a2.446,2.446,0,0,0,1.153,4.58h0.414Zm2.674-50.4a6.506,6.506,0,1,1-6.408,6.5,6.457,6.457,0,0,1,6.408-6.5m-35.148,33.128h11.69a2.947,2.947,0,0,0,0-5.894h-9.987l-4.391-7.991,4.269,4.82,0.057-3.78a4.9,4.9,0,0,0-4.826-5.015l-4.473-.031a4.9,4.9,0,0,0-4.9,4.948l0.044,16.742a4.972,4.972,0,0,0,1.443,3.5,4.829,4.829,0,0,0,2.333,1.3h-6.111l-4.144-21.4a2.406,2.406,0,0,0-2.823-1.925,2.438,2.438,0,0,0-1.894,2.866l4.525,23.369a2.415,2.415,0,0,0,2.359,1.969h0.413l-5.114,13.46a1.636,1.636,0,0,0,.919,2.1,1.594,1.594,0,0,0,2.071-.933l5.56-14.63h9.127l3.139,8.263-1.008,2.583a3.558,3.558,0,0,0,1.958,4.592,3.469,3.469,0,0,0,4.523-1.989l7.91-20.291a3.582,3.582,0,0,0-.361-3.293,3.477,3.477,0,0,0-2.88-1.544h-0.01c-11.4.033-10.679,0.038-10.794,0.02a3.859,3.859,0,0,1-2.973-2.442l-2.708-9.1,4.516,8.218a2.9,2.9,0,0,0,2.537,1.51m0,13.476h0a2.446,2.446,0,0,0,1.152-4.58l3.147-.01-3.269,8.391-1.446-3.8h0.416Zm-1.643-46.6a6.506,6.506,0,1,1-6.409,6.5,6.457,6.457,0,0,1,6.409-6.5m16.849-14.695c-6.34,0-11.479,3.756-11.479,8.39a7.632,7.632,0,0,0,3.846,6.265l-1.591,3.226a0.845,0.845,0,0,0,.17.98,0.813,0.813,0,0,0,.973.118l4.51-2.615a15.35,15.35,0,0,0,3.571.415c6.337,0,11.476-3.755,11.476-8.389s-5.137-8.39-11.476-8.39" transform="translate(-919.969 -888)"/>
</svg>
