<svg xmlns="http://www.w3.org/2000/svg" width="84" height="101" viewBox="0 0 84 101">
  <metadata><?xpacket begin="﻿" id="W5M0MpCehiHzreSzNTczkc9d"?>
<x:xmpmeta xmlns:x="adobe:ns:meta/" x:xmptk="Adobe XMP Core 5.6-c138 79.159824, 2016/09/14-01:09:01        ">
   <rdf:RDF xmlns:rdf="http://www.w3.org/1999/02/22-rdf-syntax-ns#">
      <rdf:Description rdf:about=""/>
   </rdf:RDF>
</x:xmpmeta>
                                                                                                    
                                                                                                    
                                                                                                    
                                                                                                    
                                                                                                    
                                                                                                    
                                                                                                    
                                                                                                    
                                                                                                    
                                                                                                    
                                                                                                    
                                                                                                    
                                                                                                    
                                                                                                    
                                                                                                    
                                                                                                    
                                                                                                    
                                                                                                    
                                                                                                    
                                                                                                    
                           
<?xpacket end="w"?></metadata>
<defs>
    <style>
      .cls-1 {
        fill: #3d8a91;
        fill-rule: evenodd;
      }
    </style>
  </defs>
  <path class="cls-1" d="M1255.24,910.156h-29.11V897.038h-20.28v13.118h-29.1a2.8,2.8,0,0,0,0,5.6h29.1v13.117h6.79v4.255a3.4,3.4,0,0,0,2.32,3.229,4.669,4.669,0,0,0,1,3.019c1.05,1.161,2.69,1.157,4.8,1.144,0.62,0,1.29-.006,2.01.017a5.58,5.58,0,0,1,2.37.449c-0.65.545-3.39,1.453-9.12,0.87-3.08-.321-7.34-0.523-8.73,1.383a2.649,2.649,0,0,0-.17,2.722,2.984,2.984,0,0,0,.73,1.046,15.312,15.312,0,0,0-2.91,1.2l0.15,4.5a11.645,11.645,0,0,0-1.84,1.834l-4.43-.3a13.429,13.429,0,0,0-.76,1.54,16.173,16.173,0,0,0-.58,1.617l3.26,3.076a11.536,11.536,0,0,0-.04,2.624l-3.34,2.974a15.886,15.886,0,0,0,1.25,3.2l4.43-.163a12.017,12.017,0,0,0,1.8,1.878l-0.29,4.514a14.2,14.2,0,0,0,3.1,1.36l3.02-3.31a11.1,11.1,0,0,0,2.58.039l2.92,3.4a15.292,15.292,0,0,0,3.14-1.267l-0.16-4.518a11.548,11.548,0,0,0,1.84-1.832l4.44,0.3c0.27-.493.53-1,0.76-1.537s0.41-1.071.58-1.616l-3.26-3.081a12.144,12.144,0,0,0,.05-2.625l3.33-2.974a15.892,15.892,0,0,0-1.25-3.193l-4.43.165a12.048,12.048,0,0,0-1.8-1.876l0.29-4.513c-0.21-.117-0.43-0.217-0.65-0.329-1.19-1.43-3.47-1.49-5.68-1.541-2.05-.046-4.17-0.094-4.65-1.261a0.937,0.937,0,0,1-.04-0.992c0.29-.4,1.56-1.254,7.3-0.663,5.42,0.553,9.62-.147,10.72-1.785a1.484,1.484,0,0,0,.13-1.565c-0.58-1.162-2.5-1.46-4.01-1.51-0.74-.024-1.43-0.022-2.06-0.015-1.73.009-2.99,0.013-3.52-.574a3.015,3.015,0,0,1-.52-1.731,3.4,3.4,0,0,0,2.63-3.327v-4.251h6.78V915.755h29.11a2.8,2.8,0,0,0,0-5.6m-36.09,54.888a7.6,7.6,0,0,1-10.06,4.071,7.853,7.853,0,0,1-4-10.242,7.6,7.6,0,0,1,10.06-4.071,7.835,7.835,0,0,1,4,10.242m-5.83-16.729c0.7,0.015,1.4.034,2.05,0.089l-1.79,1.962a11.546,11.546,0,0,0-2.58-.04l-2.4-2.786a11.063,11.063,0,0,0,4.72.775m13.71-49.618v5.97h0.58a2.986,2.986,0,0,0,0-5.97h-0.58Zm-9.56-2.327,0.48,0c-0.04-2.954.63-5.075,2.04-6.491,2.67-2.683,7.85-2.56,12.86-2.432,5.23,0.129,10.63.26,13.54-2.842,1.63-1.741,2.3-4.263,2.05-7.705l-1.73.13c0.21,2.915-.3,5-1.58,6.355-1.55,1.661-4.15,2.18-7.17,2.307a6.736,6.736,0,0,0,1.84-1.393c1.62-1.782,2.27-4.491,2-8.286l-1.74.133c0.24,3.278-.27,5.553-1.54,6.954-1.92,2.112-5.47,2.134-9.24,2.154-4.1.026-8.33,0.049-11.01,2.826-1.76,1.817-2.58,4.549-2.54,8.352l1.74-.022V896.37m-5.35,61.692a3.9,3.9,0,1,1-3.82,3.9,3.861,3.861,0,0,1,3.82-3.9m31.11,0.537-1.05-.38,0.47-1.036,1.11-2.375a8.636,8.636,0,0,0-1.39-1.42l-2.34,1.134-1.01.492-0.37-1.076-0.87-2.488-0.98-.053-0.99.053-0.87,2.488-0.37,1.076-1.02-.492-2.33-1.13a9.372,9.372,0,0,0-1.4,1.416l1.12,2.381,0.48,1.034-1.06.38-2.44.884-0.05,1,0.05,1,2.44,0.885,1.06,0.38-0.48,1.032-1.12,2.38a8.843,8.843,0,0,0,1.4,1.416l2.34-1.129,1.01-.49,0.38,1.073,0.86,2.488,0.99,0.054,0.98-.054,0.87-2.488,0.37-1.073,1.02,0.49,2.33,1.129a8.6,8.6,0,0,0,1.4-1.416l-1.12-2.38-0.48-1.028,1.06-.38,2.44-.889,0.05-1-0.05-1Zm-6.43,3.834a1.948,1.948,0,1,1,1.91-1.948,1.933,1.933,0,0,1-1.91,1.948" transform="translate(-1174 -876)"/>
</svg>
