<svg xmlns="http://www.w3.org/2000/svg" width="87.94" height="73" viewBox="0 0 87.94 73">
  <metadata><?xpacket begin="﻿" id="W5M0MpCehiHzreSzNTczkc9d"?>
<x:xmpmeta xmlns:x="adobe:ns:meta/" x:xmptk="Adobe XMP Core 5.6-c138 79.159824, 2016/09/14-01:09:01        ">
   <rdf:RDF xmlns:rdf="http://www.w3.org/1999/02/22-rdf-syntax-ns#">
      <rdf:Description rdf:about=""/>
   </rdf:RDF>
</x:xmpmeta>
                                                                                                    
                                                                                                    
                                                                                                    
                                                                                                    
                                                                                                    
                                                                                                    
                                                                                                    
                                                                                                    
                                                                                                    
                                                                                                    
                                                                                                    
                                                                                                    
                                                                                                    
                                                                                                    
                                                                                                    
                                                                                                    
                                                                                                    
                                                                                                    
                                                                                                    
                                                                                                    
                           
<?xpacket end="w"?></metadata>
<defs>
    <style>
      .cls-1 {
        fill: #3d8a91;
        fill-rule: evenodd;
      }
    </style>
  </defs>
  <path class="cls-1" d="M1426.33,946.186a7.372,7.372,0,0,1-2.3,1.545v12.017a3.257,3.257,0,0,0,3.28,3.229h7.4a3.257,3.257,0,0,0,3.29-3.229V935.216a3.338,3.338,0,0,0-.04-0.461Zm76.66-46.843h-0.23c-4.99.232-9.99,0.462-14.97,0.691a1.886,1.886,0,0,0-1.97,1,1.535,1.535,0,0,0,.6,1.952c1.53,1.508,3.05,3.036,4.6,4.508l-1.7,1.67-13.81,13.578-1.22,1.207-3.02,2.965-11.88,11.679-0.69-.675-14.2-13.969-3.02-2.965-0.81-.8a3.282,3.282,0,0,0-2.33-.941,3.356,3.356,0,0,0-2.33.941l-0.81.8-17.24,16.952a3.211,3.211,0,0,0,0,4.58l0.81,0.8a3.275,3.275,0,0,0,2.33.942,3.357,3.357,0,0,0,2.33-.942l14.91-14.661,0.69,0.675,14.2,13.969,3.02,2.965,0.81,0.8a3.282,3.282,0,0,0,2.33.941,3.356,3.356,0,0,0,2.33-.941l0.81-.8,14.21-13.971,3.02-2.963,1.22-1.208,13.81-13.578,1.68-1.652,4.52,4.4a2.14,2.14,0,0,0,1.42.852,1.609,1.609,0,0,0,.74-0.212,2.222,2.222,0,0,0,1.14-2.13c0.22-4.792.45-9.567,0.69-14.36a1.735,1.735,0,0,0-1.99-2.1m-51.69,20.679a16.041,16.041,0,0,0,4.48,1.262c1.21,0.2,1.25.248,1.26,1.472,0,0.568.02,1.117,0.02,1.686a1.011,1.011,0,0,0,1.09,1.137c0.84,0.017,1.67.017,2.52,0a0.962,0.962,0,0,0,1.05-1.066c0-.764.04-1.526,0-2.307a1.224,1.224,0,0,1,1.07-1.385,8.646,8.646,0,0,0,4.4-2.769c3.19-3.816,1.97-9.406-2.56-11.874a40.46,40.46,0,0,0-4.43-1.97,9.77,9.77,0,0,1-2.42-1.35,2.058,2.058,0,0,1,.53-3.692,4.657,4.657,0,0,1,1.5-.3,11.515,11.515,0,0,1,5.59,1.082c0.89,0.427,1.18.284,1.48-.621,0.31-.958.58-1.917,0.87-2.893a1,1,0,0,0-.67-1.348,13.782,13.782,0,0,0-3.52-1.03c-1.61-.248-1.61-0.248-1.61-1.828-0.01-2.237-.01-2.237-2.27-2.237h-0.99c-1.07.035-1.25,0.213-1.27,1.26-0.01.48,0,.94,0,1.42,0,1.4-.01,1.385-1.37,1.863-3.28,1.173-5.33,3.374-5.54,6.906-0.2,3.123,1.46,5.236,4.06,6.762a45.588,45.588,0,0,0,5.09,2.238,7.914,7.914,0,0,1,1.86,1.065,2.481,2.481,0,0,1-.61,4.384,6.413,6.413,0,0,1-3.27.425,14.553,14.553,0,0,1-4.98-1.472c-0.92-.48-1.19-0.356-1.5.638-0.27.853-.51,1.7-0.74,2.556-0.34,1.172-.24,1.455.88,1.988m1.99,29.146-3.02-2.965-6.5-6.39a3.27,3.27,0,0,0-.45,1.634v18.318a3.26,3.26,0,0,0,3.29,3.231h7.4a3.259,3.259,0,0,0,3.29-3.231v-7.933a7.5,7.5,0,0,1-3.2-1.864Zm12.18,0-0.81.8a7.274,7.274,0,0,1-2.04,1.419v8.378a3.26,3.26,0,0,0,3.29,3.231h7.4a3.265,3.265,0,0,0,3.29-3.231V941.447a3.152,3.152,0,0,0-.96-2.272Zm18.46-18.158-1.23,1.207-0.8.781v26.731a3.26,3.26,0,0,0,3.29,3.231h7.4a3.259,3.259,0,0,0,3.29-3.231V919.72a3.1,3.1,0,0,0-.04-0.426Z" transform="translate(-1417.03 -890)"/>
</svg>
