<svg xmlns="http://www.w3.org/2000/svg" width="59" height="57.97" viewBox="0 0 59 57.97">
  <metadata><?xpacket begin="﻿" id="W5M0MpCehiHzreSzNTczkc9d"?>
<x:xmpmeta xmlns:x="adobe:ns:meta/" x:xmptk="Adobe XMP Core 5.6-c138 79.159824, 2016/09/14-01:09:01        ">
   <rdf:RDF xmlns:rdf="http://www.w3.org/1999/02/22-rdf-syntax-ns#">
      <rdf:Description rdf:about=""/>
   </rdf:RDF>
</x:xmpmeta>
                                                                                                    
                                                                                                    
                                                                                                    
                                                                                                    
                                                                                                    
                                                                                                    
                                                                                                    
                                                                                                    
                                                                                                    
                                                                                                    
                                                                                                    
                                                                                                    
                                                                                                    
                                                                                                    
                                                                                                    
                                                                                                    
                                                                                                    
                                                                                                    
                                                                                                    
                                                                                                    
                           
<?xpacket end="w"?></metadata>
<defs>
    <style>
      .cls-1 {
        fill: #fff;
        fill-rule: evenodd;
      }
    </style>
  </defs>
  <path class="cls-1" d="M1228.62,1920.71a14.367,14.367,0,0,0-13.53-18.69h-0.11a14.346,14.346,0,0,0-13.35,9.24,10.705,10.705,0,0,0-16.93,4.82,10.3,10.3,0,0,0-.47,5.41,11.1,11.1,0,0,0-6.22,9.94c0,5.71,4.07,9.97,9.83,10.5v-16.9h39.32v16.9c5.76-.53,9.83-4.79,9.83-10.5a10.951,10.951,0,0,0-8.37-10.72m-3.92,18.69v-12.11h-34.4v12.11h6.14v2.43h-6.14v12.11h5.53v3.63h-4.3V1960h31.94v-2.43h-4.3v-3.63h5.53v-12.11h-4.91v-2.43h4.91Zm-25.8,0h18.43v2.43H1198.9v-2.43Zm15.97,9.69h-2.46v-2.42h2.46v2.42Zm-2.46-16.96h2.46v2.42h-2.46v-2.42Zm-17.2,0h9.83v2.42h-9.83v-2.42Zm0,14.54h9.83v2.42h-9.83v-2.42Zm21.51,10.9h-18.43v-3.63h18.43v3.63Zm3.07-8.48h-2.46v-2.42h2.46v2.42Zm-2.46-16.96h2.46v2.42h-2.46v-2.42Z" transform="translate(-1178 -1902.03)"/>
</svg>
