<svg xmlns="http://www.w3.org/2000/svg" width="57.03" height="57.97" viewBox="0 0 57.03 57.97">
  <metadata><?xpacket begin="﻿" id="W5M0MpCehiHzreSzNTczkc9d"?>
<x:xmpmeta xmlns:x="adobe:ns:meta/" x:xmptk="Adobe XMP Core 5.6-c138 79.159824, 2016/09/14-01:09:01        ">
   <rdf:RDF xmlns:rdf="http://www.w3.org/1999/02/22-rdf-syntax-ns#">
      <rdf:Description rdf:about=""/>
   </rdf:RDF>
</x:xmpmeta>
                                                                                                    
                                                                                                    
                                                                                                    
                                                                                                    
                                                                                                    
                                                                                                    
                                                                                                    
                                                                                                    
                                                                                                    
                                                                                                    
                                                                                                    
                                                                                                    
                                                                                                    
                                                                                                    
                                                                                                    
                                                                                                    
                                                                                                    
                                                                                                    
                                                                                                    
                                                                                                    
                           
<?xpacket end="w"?></metadata>
<defs>
    <style>
      .cls-1 {
        fill: #fff;
        fill-rule: evenodd;
      }
    </style>
  </defs>
  <path class="cls-1" d="M1069.87,1909.79a1.846,1.846,0,0,0-1.79-1.11l-7.95.44,0.43-8.11a1.915,1.915,0,0,0-1.09-1.83,1.775,1.775,0,0,0-.75-0.16,1.8,1.8,0,0,0-1.31.55l-5.82,5.94a1.908,1.908,0,0,0-.55,1.34v8.8l-0.45.46a22.4,22.4,0,0,0-14.81-5.6,23.25,23.25,0,1,0,22.78,23.25,23.426,23.426,0,0,0-5.3-14.9l0.47-.47h8.63a1.833,1.833,0,0,0,1.3-.55l5.83-5.95a1.932,1.932,0,0,0,.38-2.1m-15.1,23.97a18.989,18.989,0,1,1-18.99-19.37,18.632,18.632,0,0,1,12.12,4.47l-4.41,4.5a12.575,12.575,0,0,0-7.71-2.65,13.048,13.048,0,1,0,12.78,13.05,13.075,13.075,0,0,0-2.42-7.63l4.42-4.51a19.487,19.487,0,0,1,4.21,12.14m-10,0a8.987,8.987,0,1,1-8.99-9.17,8.871,8.871,0,0,1,4.99,1.54l-6.13,6.26a1.956,1.956,0,0,0,0,2.73,1.872,1.872,0,0,0,1.34.57,1.9,1.9,0,0,0,1.35-.57l6.08-6.21a9.285,9.285,0,0,1,1.36,4.85" transform="translate(-1013 -1899.03)"/>
</svg>
