<?xml version="1.0" encoding="UTF-8"?>
<svg width="25px" height="23px" viewBox="0 0 25 23" version="1.1" xmlns="http://www.w3.org/2000/svg" xmlns:xlink="http://www.w3.org/1999/xlink">
    <!-- Generator: Sketch 46.2 (44496) - http://www.bohemiancoding.com/sketch -->
    <title>menu-button-of-three-horizontal-lines copy</title>
    <desc>Created with Sketch.</desc>
    <defs></defs>
    <g id="Welcome" stroke="none" stroke-width="1" fill="none" fill-rule="evenodd">
        <g id="Mobil-Landscape---FabLab" transform="translate(-280.000000, -11.000000)" fill-rule="nonzero" fill="#FFFFFF">
            <g id="HEADER-" transform="translate(-5.000000, 11.000000)">
                <g id="menu-button-of-three-horizontal-lines-copy" transform="translate(285.000000, 0.000000)">
                    <path d="M22.5806452,0 L2.41935484,0 C1.08870968,0 0,1.125 0,2.5 C0,3.875 1.08870968,5 2.41935484,5 L22.5806452,5 C23.9112903,5 25,3.875 25,2.5 C25,1.125 23.9112903,0 22.5806452,0 Z" id="Shape"></path>
                    <path d="M22.5806452,9 L2.41935484,9 C1.08870968,9 0,10.125 0,11.5 C0,12.875 1.08870968,14 2.41935484,14 L22.5806452,14 C23.9112903,14 25,12.875 25,11.5 C25,10.125 23.9112903,9 22.5806452,9 Z" id="Shape"></path>
                    <path d="M22.5806452,18 L2.41935484,18 C1.08870968,18 0,19.125 0,20.5 C0,21.875 1.08870968,23 2.41935484,23 L22.5806452,23 C23.9112903,23 25,21.875 25,20.5 C25,19.125 23.9112903,18 22.5806452,18 Z" id="Shape"></path>
                </g>
            </g>
        </g>
    </g>
</svg>