<svg xmlns="http://www.w3.org/2000/svg" xmlns:xlink="http://www.w3.org/1999/xlink" width="56" height="53" viewBox="0 0 56 53">
  <metadata><?xpacket begin="﻿" id="W5M0MpCehiHzreSzNTczkc9d"?>
<x:xmpmeta xmlns:x="adobe:ns:meta/" x:xmptk="Adobe XMP Core 5.6-c138 79.159824, 2016/09/14-01:09:01        ">
   <rdf:RDF xmlns:rdf="http://www.w3.org/1999/02/22-rdf-syntax-ns#">
      <rdf:Description rdf:about=""/>
   </rdf:RDF>
</x:xmpmeta>
                                                                                                    
                                                                                                    
                                                                                                    
                                                                                                    
                                                                                                    
                                                                                                    
                                                                                                    
                                                                                                    
                                                                                                    
                                                                                                    
                                                                                                    
                                                                                                    
                                                                                                    
                                                                                                    
                                                                                                    
                                                                                                    
                                                                                                    
                                                                                                    
                                                                                                    
                                                                                                    
                           
<?xpacket end="w"?></metadata>
<defs>
    <style>
      .cls-1 {
        fill: #fff;
        fill-rule: evenodd;
        filter: url(#filter);
      }
    </style>
    <filter id="filter" x="345" y="1904" width="56" height="53" filterUnits="userSpaceOnUse">
      <feFlood result="flood" flood-color="#fff"/>
      <feComposite result="composite" operator="in" in2="SourceGraphic"/>
      <feBlend result="blend" in2="SourceGraphic"/>
    </filter>
  </defs>
  <path class="cls-1" d="M367.28,1941.28a0.578,0.578,0,0,0-.237-0.39l-6.483-4.85,6.483-4.84a0.626,0.626,0,0,0,.237-0.39,0.61,0.61,0,0,0-.116-0.45l-1.028-1.38a0.607,0.607,0,0,0-.843-0.12l-8.972,6.7a0.609,0.609,0,0,0-.241.48,0.629,0.629,0,0,0,.241.49l8.972,6.7a0.6,0.6,0,0,0,.36.12,0.608,0.608,0,0,0,.483-0.25l1.028-1.37a0.61,0.61,0,0,0,.116-0.45m22.4-5.72-8.969-6.7a0.606,0.606,0,0,0-.842.12l-1.03,1.38a0.614,0.614,0,0,0-.116.45,0.632,0.632,0,0,0,.235.39l6.485,4.84-6.485,4.85a0.583,0.583,0,0,0-.235.39,0.614,0.614,0,0,0,.116.45l1.03,1.37a0.6,0.6,0,0,0,.48.25,0.609,0.609,0,0,0,.362-0.12l8.969-6.7a0.623,0.623,0,0,0,.242-0.49,0.6,0.6,0,0,0-.242-0.48m-10.922-10.27-1.585-.67a0.608,0.608,0,0,0-.459-0.01,0.6,0.6,0,0,0-.328.33l-9.46,22.34a0.6,0.6,0,0,0,.319.79l1.585,0.67a0.631,0.631,0,0,0,.235.05,0.6,0.6,0,0,0,.225-0.05,0.587,0.587,0,0,0,.329-0.32l9.46-22.35a0.6,0.6,0,0,0-.321-0.78m19.234-21.3H348.009A3.012,3.012,0,0,0,345,1907v47.01a3.01,3.01,0,0,0,3.008,3H397.99a3.01,3.01,0,0,0,3.009-3V1907a3.012,3.012,0,0,0-3.009-3.01m-5.954,4.61a2.49,2.49,0,1,1-2.5,2.49,2.5,2.5,0,0,1,2.5-2.49m-8.459,0a2.49,2.49,0,1,1-2.494,2.49,2.5,2.5,0,0,1,2.494-2.49m-30.941,1.2H362.7a1.29,1.29,0,0,1,0,2.58H352.636a1.29,1.29,0,0,1,0-2.58m43.584,42a0.389,0.389,0,0,1-.393.39H350.173a0.388,0.388,0,0,1-.392-0.39v-32.37H396.22v32.37Z" transform="translate(-345 -1904)"/>
</svg>
