<svg xmlns="http://www.w3.org/2000/svg" width="55" height="60.97" viewBox="0 0 55 60.97">
  <metadata><?xpacket begin="﻿" id="W5M0MpCehiHzreSzNTczkc9d"?>
<x:xmpmeta xmlns:x="adobe:ns:meta/" x:xmptk="Adobe XMP Core 5.6-c138 79.159824, 2016/09/14-01:09:01        ">
   <rdf:RDF xmlns:rdf="http://www.w3.org/1999/02/22-rdf-syntax-ns#">
      <rdf:Description rdf:about=""/>
   </rdf:RDF>
</x:xmpmeta>
                                                                                                    
                                                                                                    
                                                                                                    
                                                                                                    
                                                                                                    
                                                                                                    
                                                                                                    
                                                                                                    
                                                                                                    
                                                                                                    
                                                                                                    
                                                                                                    
                                                                                                    
                                                                                                    
                                                                                                    
                                                                                                    
                                                                                                    
                                                                                                    
                                                                                                    
                                                                                                    
                           
<?xpacket end="w"?></metadata>
<defs>
    <style>
      .cls-1 {
        fill: #fff;
        fill-rule: evenodd;
      }
    </style>
  </defs>
  <path class="cls-1" d="M730,1902.77a2.787,2.787,0,0,0-2.786-2.78H678.483a2.787,2.787,0,0,0-2.785,2.78,2.749,2.749,0,0,0,1.392,2.38v31.94c0.754-.69,1.67-1.52,2.786-2.54v-29.01h45.947v30.49H689.937c-0.931,1.01-1.784,1.94-2.547,2.78h2.456l-5,18.68a2.784,2.784,0,0,0,5.382,1.43l5.018-18.73h15.214l5.019,18.73a2.784,2.784,0,0,0,2.688,2.06,2.563,2.563,0,0,0,.72-0.1,2.766,2.766,0,0,0,1.974-3.39l-5-18.68h11.366a1.4,1.4,0,0,0,1.391-1.39v-32.27a2.75,2.75,0,0,0,1.393-2.38m-25.063,28.06v-10.39a2.784,2.784,0,0,0-5.568,0v10.39a2.784,2.784,0,0,0,5.568,0m9.051,0v-20.09a2.784,2.784,0,0,0-5.568,0v20.09a2.784,2.784,0,0,0,5.568,0m9.048,0v-14.55a2.785,2.785,0,0,0-5.569,0v14.55a2.785,2.785,0,0,0,5.569,0m-27.813-5.62a0.691,0.691,0,0,0-.962,0s-18.639,16.96-18.73,17.06a1.8,1.8,0,0,0,0,2.55,1.824,1.824,0,0,0,2.561,0c0.093-.09,17.131-18.65,17.131-18.65a0.68,0.68,0,0,0,0-.96" transform="translate(-675 -1900)"/>
</svg>
