<svg xmlns="http://www.w3.org/2000/svg" viewBox="0 0 57.71 15.56"><title>Fichier 2</title><g id="Calque_2" data-name="Calque 2"><g id="Calque_2-2" data-name="Calque 2"><path d="M4.89,4.06V15.32H3.3V4.06h-3V2.68H7.9V4.06Z" transform="translate(-0.28 -2.68)" style="fill:#046576"/><path d="M12.34,8.49a2.66,2.66,0,0,0-1.69.87,2.6,2.6,0,0,0-.6,1.75v4.22H8.46v-8h1.59V8.43a2.19,2.19,0,0,1,1.51-1.31Z" transform="translate(-0.28 -2.68)" style="fill:#046576"/><path d="M15.43,5a1,1,0,0,1,.32.7,1,1,0,0,1-.32.72,1.21,1.21,0,0,1-1.62,0,1,1,0,0,1-.32-.72,1,1,0,0,1,.32-.7,1.21,1.21,0,0,1,1.62,0Zm0,2.29v8H13.83v-8Z" transform="translate(-0.28 -2.68)" style="fill:#046576"/><path d="M17.25,7.69H18V8.77a4.41,4.41,0,0,1,.44-.51,4.28,4.28,0,0,1,6,0,4.1,4.1,0,0,1,1.25,3,4.27,4.27,0,0,1-4.26,4.26,4.09,4.09,0,0,1-3-1.26,4.41,4.41,0,0,1-.44-.51v4.46h-.7Zm.7,2.86V12a3.31,3.31,0,0,0,1,1.76,3.52,3.52,0,0,0,6-2.49,3.52,3.52,0,0,0-6-2.5A3.36,3.36,0,0,0,18,10.55Z" transform="translate(-0.28 -2.68)" style="fill:#d6d3b0"/><path d="M29,11.23a5.71,5.71,0,0,1-1.23-.83,1.83,1.83,0,0,1,0-2.59,1.75,1.75,0,0,1,1.29-.54,1.7,1.7,0,0,1,1.26.5,1.52,1.52,0,0,1,.48,1.11v0l-.61.25a1.53,1.53,0,0,0-.37-.89,1,1,0,0,0-.76-.3,1.13,1.13,0,0,0-.8,1.93,5,5,0,0,0,.82.6,6.34,6.34,0,0,1,1.42,1,2.28,2.28,0,0,1,0,3.2,2.26,2.26,0,0,1-3.2,0,2,2,0,0,1-.66-1.46l.69-.18a1.55,1.55,0,0,0,.46,1.14,1.57,1.57,0,0,0,2.68-1.12A1.48,1.48,0,0,0,30,12,6.76,6.76,0,0,0,29,11.23Z" transform="translate(-0.28 -2.68)" style="fill:#d6d3b0"/><path d="M33.66,18.22h-.78l2-4.32L32,7.69h.78L35.28,13l2.51-5.33h.78Z" transform="translate(-0.28 -2.68)" style="fill:#d6d3b0"/><path d="M40.38,2.9V15.32h-.7V2.9Z" transform="translate(-0.28 -2.68)" style="fill:#d6d3b0"/><path d="M46.24,7a4.25,4.25,0,0,1,4.26,4.27,4.26,4.26,0,0,1-8.53,0A4.27,4.27,0,0,1,46.24,7ZM43.75,8.78a3.52,3.52,0,0,0,0,5,3.52,3.52,0,0,0,6-2.49,3.52,3.52,0,0,0-6-2.5Z" transform="translate(-0.28 -2.68)" style="fill:#d6d3b0"/><path d="M52.71,9.4v5.92H52V7.69h.7v.49a3,3,0,0,1,2.21-.95,2.93,2.93,0,0,1,3.07,3v5.11H57.3v-5a2.23,2.23,0,0,0-.7-1.66,2.38,2.38,0,0,0-3.33,0A2.56,2.56,0,0,0,52.71,9.4Z" transform="translate(-0.28 -2.68)" style="fill:#d6d3b0"/></g></g></svg>